<svg xmlns="http://www.w3.org/2000/svg" viewBox="0 0 80 80" role="img" aria-label="GitHub style default avatar"><rect width="80" height="80" rx="16" fill="#fff8c5"/><g transform="translate(12 12)"><rect x="1" y="1" width="11" height="11" rx="2" fill="#f2cc60"/><rect x="45" y="1" width="11" height="11" rx="2" fill="#9a6700"/><rect x="12" y="1" width="11" height="11" rx="2" fill="#f2cc60"/><rect x="34" y="1" width="11" height="11" rx="2" fill="#9a6700"/><rect x="1" y="12" width="11" height="11" rx="2" fill="#f2cc60"/><rect x="45" y="12" width="11" height="11" rx="2" fill="#9a6700"/><rect x="23" y="12" width="11" height="11" rx="2" fill="#f2cc60"/><rect x="12" y="23" width="11" height="11" rx="2" fill="#f2cc60"/><rect x="34" y="23" width="11" height="11" rx="2" fill="#9a6700"/><rect x="1" y="34" width="11" height="11" rx="2" fill="#f2cc60"/><rect x="45" y="34" width="11" height="11" rx="2" fill="#9a6700"/><rect x="12" y="34" width="11" height="11" rx="2" fill="#f2cc60"/><rect x="34" y="34" width="11" height="11" rx="2" fill="#9a6700"/><rect x="23" y="34" width="11" height="11" rx="2" fill="#f2cc60"/><rect x="1" y="45" width="11" height="11" rx="2" fill="#f2cc60"/><rect x="45" y="45" width="11" height="11" rx="2" fill="#9a6700"/><rect x="12" y="45" width="11" height="11" rx="2" fill="#f2cc60"/><rect x="34" y="45" width="11" height="11" rx="2" fill="#9a6700"/><rect x="23" y="45" width="11" height="11" rx="2" fill="#f2cc60"/></g></svg>